<svg width="985" height="622" viewBox="0 0 985 622" fill="none" xmlns="http://www.w3.org/2000/svg">
<circle cx="669.649" cy="357.255" r="141.089" fill="#E96D6D"/>
<circle cx="257.772" cy="367.017" r="141.089" fill="#0138CC"/>
<rect x="265.907" y="93.4395" width="262.653" height="264.513" fill="#B6F6A6"/>
<path d="M528.524 357.702C528.524 322.998 521.689 288.635 508.408 256.573C495.128 224.511 475.663 195.379 451.124 170.84C426.585 146.301 397.453 126.836 365.391 113.555C333.329 100.275 298.966 93.4396 264.262 93.4396L264.262 357.702H528.524Z" fill="black"/>
<path d="M396.251 358.274C396.251 340.894 392.828 323.685 386.177 307.628C379.526 291.571 369.777 276.981 357.488 264.691C345.198 252.402 330.609 242.653 314.552 236.002C298.495 229.351 281.285 225.928 263.905 225.928L263.905 358.274H396.251Z" fill="#F1B2F7"/>
<rect x="398.861" y="357.487" width="262.653" height="264.513" fill="#B6F6A6"/>
<path d="M397.038 357.702C397.038 392.405 403.873 426.769 417.154 458.83C430.434 490.892 449.899 520.024 474.438 544.563C498.977 569.102 528.109 588.568 560.171 601.848C592.233 615.128 626.597 621.964 661.3 621.964L661.3 357.702H397.038Z" fill="#0138CC"/>
<path d="M529.025 357.344C529.025 374.724 532.449 391.934 539.1 407.991C545.751 424.048 555.499 438.638 567.789 450.927C580.078 463.217 594.668 472.965 610.725 479.616C626.782 486.267 643.991 489.69 661.371 489.69L661.371 357.344H529.025Z" fill="black"/>
<path d="M324.392 510.43C324.392 572.049 274.877 622 213.797 622C152.717 622 103.202 572.049 103.202 510.43C103.202 448.812 152.717 398.861 213.797 398.861C274.877 398.861 324.392 448.812 324.392 510.43ZM107.943 510.43C107.943 569.407 155.335 617.217 213.797 617.217C272.259 617.217 319.651 569.407 319.651 510.43C319.651 451.454 272.259 403.644 213.797 403.644C155.335 403.644 107.943 451.454 107.943 510.43Z" fill="black"/>
<path d="M313.674 510.431C313.674 566.129 268.957 611.282 213.797 611.282C158.637 611.282 113.92 566.129 113.92 510.431C113.92 454.732 158.637 409.58 213.797 409.58C268.957 409.58 313.674 454.732 313.674 510.431ZM118.202 510.431C118.202 563.741 161.001 606.958 213.797 606.958C266.593 606.958 309.392 563.741 309.392 510.431C309.392 457.12 266.593 413.903 213.797 413.903C161.001 413.903 118.202 457.12 118.202 510.431Z" fill="black"/>
<path d="M303.442 511.892C303.442 561.94 263.307 602.512 213.797 602.512C164.287 602.512 124.152 561.94 124.152 511.892C124.152 461.844 164.287 421.272 213.797 421.272C263.307 421.272 303.442 461.844 303.442 511.892ZM127.994 511.892C127.994 559.795 166.409 598.627 213.797 598.627C261.184 598.627 299.6 559.795 299.6 511.892C299.6 463.99 261.184 425.157 213.797 425.157C166.409 425.157 127.994 463.99 127.994 511.892Z" fill="black"/>
<path d="M293.698 510.187C293.698 554.45 257.816 590.332 213.553 590.332C169.29 590.332 133.408 554.45 133.408 510.187C133.408 465.924 169.29 430.042 213.553 430.042C257.816 430.042 293.698 465.924 293.698 510.187ZM136.844 510.187C136.844 552.552 171.188 586.896 213.553 586.896C255.919 586.896 290.263 552.552 290.263 510.187C290.263 467.821 255.919 433.477 213.553 433.477C171.188 433.477 136.844 467.821 136.844 510.187Z" fill="black"/>
<path d="M282.005 510.187C282.005 547.992 251.358 578.639 213.553 578.639C175.748 578.639 145.101 547.992 145.101 510.187C145.101 472.382 175.748 441.735 213.553 441.735C251.358 441.735 282.005 472.382 282.005 510.187ZM148.036 510.187C148.036 546.371 177.369 575.705 213.553 575.705C249.738 575.705 279.071 546.371 279.071 510.187C279.071 474.002 249.738 444.669 213.553 444.669C177.369 444.669 148.036 474.002 148.036 510.187Z" fill="black"/>
<path d="M270.8 510.187C270.8 541.803 245.17 567.433 213.553 567.433C181.937 567.433 156.307 541.803 156.307 510.187C156.307 478.571 181.937 452.941 213.553 452.941C245.17 452.941 270.8 478.571 270.8 510.187ZM158.761 510.187C158.761 540.448 183.292 564.979 213.553 564.979C243.814 564.979 268.346 540.448 268.346 510.187C268.346 479.926 243.814 455.395 213.553 455.395C183.292 455.395 158.761 479.926 158.761 510.187Z" fill="black"/>
<path d="M263.004 510.187C263.004 537.498 240.864 559.638 213.553 559.638C186.242 559.638 164.102 537.498 164.102 510.187C164.102 482.876 186.242 460.736 213.553 460.736C240.864 460.736 263.004 482.876 263.004 510.187ZM166.222 510.187C166.222 536.327 187.413 557.518 213.553 557.518C239.694 557.518 260.885 536.327 260.885 510.187C260.885 484.047 239.694 462.856 213.553 462.856C187.413 462.856 166.222 484.047 166.222 510.187Z" fill="black"/>
<path d="M250.824 510.187C250.824 532.117 233.047 549.894 211.117 549.894C189.188 549.894 171.41 532.117 171.41 510.187C171.41 488.257 189.188 470.48 211.117 470.48C233.047 470.48 250.824 488.257 250.824 510.187ZM173.112 510.187C173.112 531.176 190.128 548.192 211.117 548.192C232.107 548.192 249.122 531.176 249.122 510.187C249.122 489.197 232.107 472.182 211.117 472.182C190.128 472.182 173.112 489.197 173.112 510.187Z" fill="black"/>
<path d="M241.567 511.649C241.567 528.466 227.934 542.099 211.117 542.099C194.3 542.099 180.667 528.466 180.667 511.649C180.667 494.831 194.3 481.198 211.117 481.198C227.934 481.198 241.567 494.831 241.567 511.649ZM181.972 511.649C181.972 527.745 195.021 540.794 211.117 540.794C227.214 540.794 240.262 527.745 240.262 511.649C240.262 495.552 227.214 482.504 211.117 482.504C195.021 482.504 181.972 495.552 181.972 511.649Z" fill="black"/>
<path d="M237.183 511.892C237.183 526.153 225.622 537.714 211.361 537.714C197.1 537.714 185.539 526.153 185.539 511.892C185.539 497.631 197.1 486.07 211.361 486.07C225.622 486.07 237.183 497.631 237.183 511.892ZM186.646 511.892C186.646 525.542 197.711 536.607 211.361 536.607C225.011 536.607 236.076 525.542 236.076 511.892C236.076 498.242 225.011 487.177 211.361 487.177C197.711 487.177 186.646 498.242 186.646 511.892Z" fill="black"/>
<path d="M229.387 511.649C229.387 521.739 221.208 529.919 211.117 529.919C201.027 529.919 192.847 521.739 192.847 511.649C192.847 501.558 201.027 493.379 211.117 493.379C221.208 493.379 229.387 501.558 229.387 511.649ZM193.63 511.649C193.63 521.306 201.46 529.136 211.117 529.136C220.775 529.136 228.604 521.306 228.604 511.649C228.604 501.991 220.775 494.162 211.117 494.162C201.46 494.162 193.63 501.991 193.63 511.649Z" fill="black"/>
<path d="M223.541 510.431C223.541 516.619 218.088 521.636 211.361 521.636C204.634 521.636 199.181 516.619 199.181 510.431C199.181 504.242 204.634 499.225 211.361 499.225C218.088 499.225 223.541 504.242 223.541 510.431ZM199.703 510.431C199.703 516.354 204.922 521.156 211.361 521.156C217.799 521.156 223.019 516.354 223.019 510.431C223.019 504.507 217.799 499.705 211.361 499.705C204.922 499.705 199.703 504.507 199.703 510.431Z" fill="black"/>
<path d="M218.182 510.43C218.182 513.928 215.128 516.764 211.361 516.764C207.594 516.764 204.54 513.928 204.54 510.43C204.54 506.932 207.594 504.097 211.361 504.097C215.128 504.097 218.182 506.932 218.182 510.43ZM204.832 510.43C204.832 513.778 207.755 516.493 211.361 516.493C214.966 516.493 217.889 513.778 217.889 510.43C217.889 507.082 214.966 504.368 211.361 504.368C207.755 504.368 204.832 507.082 204.832 510.43Z" fill="black"/>
<path d="M837.236 0L839.393 126.847L867.875 3.22028L843.612 127.743L897.175 12.7404L847.552 129.498L923.855 28.1442L851.041 132.033L946.75 48.7585L853.927 135.238L964.858 73.6824L856.084 138.973L977.388 101.827L857.416 143.075L983.794 131.961L857.867 147.365L983.794 162.769L857.416 151.654L977.388 192.903L856.084 155.756L964.858 221.047L853.927 159.491L946.75 245.971L851.041 162.697L923.855 266.585L847.552 165.232L897.175 281.989L843.612 166.986L867.875 291.509L839.393 167.883L837.236 294.729L835.08 167.883L806.597 291.509L830.861 166.986L777.298 281.989L826.921 165.232L750.617 266.585L823.431 162.697L727.723 245.971L820.545 159.491L709.615 221.047L818.389 155.756L697.084 192.903L817.056 151.654L690.679 162.769L816.605 147.365L690.679 131.961L817.056 143.075L697.084 101.827L818.389 138.973L709.615 73.6824L820.545 135.238L727.723 48.7585L823.431 132.033L750.617 28.1442L826.921 129.498L777.298 12.7404L830.861 127.743L806.597 3.22028L835.08 126.847L837.236 0Z" fill="black"/>
</svg>
